<svg width="20" height="24" viewBox="0 0 20 24" fill="none" xmlns="http://www.w3.org/2000/svg">
<path d="M16.367 12.3936C16.367 12.4946 16.2154 15.476 19.5 17.0425C18.8936 18.9122 16.7713 23.0558 14.2952 23.0558C12.8803 23.0558 12.0718 22.1462 10.4548 22.1462C8.78723 22.1462 7.87766 23.0558 6.61436 23.0558C4.18883 23.1569 1.86436 18.609 1.20745 16.7393C0.702128 15.3244 0.5 13.9601 0.5 12.6462C0.5 8.14886 3.48138 5.97599 6.31117 5.92546C7.67553 5.92546 9.39362 6.88556 10.1516 6.88556C10.859 6.88556 12.8298 5.72333 14.6489 5.87492C16.5186 6.02652 17.9335 6.73397 18.8936 8.09833C17.2261 9.1595 16.367 10.5239 16.367 12.3936ZM13.5372 4.10631C12.5266 5.26854 11.3138 5.92546 10 5.82439C9.89894 4.46003 10.4043 3.19673 11.3138 2.18609C12.1223 1.27652 13.5372 0.518543 14.75 0.41748C14.75 0.973332 14.9016 2.48929 13.5372 4.10631Z" fill="#1F4B43"/>
</svg>
