<svg width="16" height="14" viewBox="0 0 16 14" fill="none" xmlns="http://www.w3.org/2000/svg">
<g clip-path="url(#clip0_2_4252)">
<path d="M1.54737 6.45829H13.558L8.95895 2.07904C8.71812 1.84972 8.70879 1.46874 8.93817 1.22799C9.16725 0.987539 9.54835 0.977909 9.78947 1.20722L15.0418 6.20881C15.269 6.43631 15.3946 6.73846 15.3946 7.06016C15.3946 7.38156 15.269 7.684 15.0312 7.92144L9.78917 12.9128C9.67268 13.0238 9.52337 13.0789 9.37406 13.0789C9.21511 13.0789 9.05617 13.0163 8.93787 12.8921C8.70849 12.6513 8.71782 12.2706 8.95864 12.0413L13.577 7.66204H1.54737C1.21503 7.66204 0.945312 7.3924 0.945312 7.06016C0.945312 6.72793 1.21503 6.45829 1.54737 6.45829Z" fill="#1A1A1A"/>
</g>
<defs>
<clipPath id="clip0_2_4252">
<rect width="15" height="12.84" fill="white" transform="translate(0.669922 0.640137)"/>
</clipPath>
</defs>
</svg>
