<svg width="12" height="14" viewBox="0 0 12 14" fill="none" xmlns="http://www.w3.org/2000/svg">
<path d="M5.4147 0.692968L5.41399 0.693674L0.896557 5.21111C0.545297 5.5655 0.547839 6.13755 0.902232 6.48881C0.93024 6.51656 0.960027 6.54246 0.991423 6.56634C1.36922 6.81963 1.87447 6.76435 2.18854 6.43534L4.6912 3.94171C4.8239 3.80915 4.93517 3.65675 5.02098 3.48997L5.16553 3.2144L5.16554 12.0911C5.14642 12.5457 5.45725 12.948 5.90188 13.0443C6.39442 13.1242 6.85847 12.7897 6.93835 12.2971C6.94673 12.2454 6.9506 12.1931 6.94992 12.1408V3.23247L7.04027 3.42672C7.12879 3.61626 7.24954 3.78896 7.39715 3.93719L9.89529 6.43534C10.2094 6.76435 10.7146 6.81963 11.0924 6.56634C11.495 6.27155 11.5824 5.70622 11.2876 5.3036C11.2638 5.27108 11.2378 5.24016 11.2099 5.21111L6.69243 0.693674C6.33979 0.340663 5.76774 0.340353 5.4147 0.692968Z" fill="white"/>
</svg>
