<svg width="15" height="13" viewBox="0 0 15 13" fill="none" xmlns="http://www.w3.org/2000/svg">
<path d="M0.877444 6.22806H12.8881L8.28902 1.84882C8.0482 1.6195 8.03887 1.23851 8.26825 0.997763C8.49733 0.757314 8.87842 0.747684 9.11954 0.976999L14.3719 5.97858C14.5991 6.20608 14.7247 6.50823 14.7247 6.82994C14.7247 7.15133 14.5991 7.45378 14.3613 7.69121L9.11925 12.6826C9.00275 12.7936 8.85344 12.8487 8.70413 12.8487C8.54519 12.8487 8.38625 12.7861 8.26795 12.6618C8.03857 12.4211 8.0479 12.0404 8.28872 11.8111L12.9071 7.43181H0.877444C0.54511 7.43181 0.275391 7.16217 0.275391 6.82994C0.275391 6.4977 0.54511 6.22806 0.877444 6.22806Z" fill="#1A1A1A"/>
</svg>
