<svg width="15" height="13" viewBox="0 0 15 13" fill="none" xmlns="http://www.w3.org/2000/svg">
<path d="M1.04737 5.92826H13.058L8.45895 1.54902C8.21812 1.31969 8.20879 0.938709 8.43817 0.697959C8.66725 0.457509 9.04835 0.447879 9.28947 0.677194L14.5418 5.67878C14.769 5.90628 14.8946 6.20843 14.8946 6.53013C14.8946 6.85153 14.769 7.15398 14.5312 7.39141L9.28917 12.3828C9.17268 12.4938 9.02337 12.5489 8.87406 12.5489C8.71511 12.5489 8.55617 12.4863 8.43787 12.362C8.20849 12.1213 8.21782 11.7406 8.45864 11.5113L13.077 7.13201H1.04737C0.715032 7.13201 0.445312 6.86237 0.445312 6.53013C0.445312 6.1979 0.715032 5.92826 1.04737 5.92826Z" fill="#E7C873"/>
</svg>
