<svg width="21" height="21" viewBox="0 0 21 21" fill="none" xmlns="http://www.w3.org/2000/svg">
<g clip-path="url(#clip0_2_4174)">
<path d="M20.6397 10.9033C20.6397 10.4145 20.473 10.0034 20.1397 9.67002C19.8063 9.33668 19.3952 9.17002 18.9063 9.17002H3.77298V3.77002C3.77298 3.32557 3.92854 2.94779 4.23965 2.63668C4.46187 2.41446 4.71743 2.28113 5.00632 2.23668C5.2952 2.19224 5.5952 2.21446 5.90632 2.30335C5.50632 2.92557 5.35076 3.61446 5.43965 4.37002C5.52854 5.12557 5.83965 5.77002 6.37298 6.30335L6.50632 6.50335C6.63965 6.59224 6.78409 6.63668 6.93965 6.63668C7.0952 6.63668 7.21743 6.59224 7.30632 6.50335L11.1063 2.70335C11.2396 2.57002 11.3063 2.42557 11.3063 2.27002C11.3063 2.11446 11.2396 1.97002 11.1063 1.83668L10.973 1.70335C10.3952 1.12557 9.6952 0.814461 8.87298 0.770016C8.05076 0.725573 7.32854 0.947794 6.70632 1.43668C6.17298 1.12557 5.5952 1.00335 4.97298 1.07002C4.35076 1.13668 3.81743 1.39224 3.37298 1.83668C2.83965 2.37002 2.57298 3.01446 2.57298 3.77002V9.17002H2.37298C1.88409 9.17002 1.47298 9.33668 1.13965 9.67002C0.806315 10.0034 0.639648 10.4145 0.639648 10.9033C0.639648 11.3034 0.75076 11.6478 0.972982 11.9367C1.1952 12.2256 1.46187 12.4367 1.77298 12.57V13.8367C1.77298 14.9033 2.06187 15.8811 2.63965 16.77C3.21743 17.6589 3.95076 18.3478 4.83965 18.8367L4.30632 19.9034C4.21743 20.0811 4.20632 20.2367 4.27298 20.37C4.33965 20.5034 4.43965 20.6145 4.57298 20.7034C4.70632 20.7922 4.85076 20.8034 5.00632 20.7367C5.16187 20.67 5.28409 20.57 5.37298 20.4367L5.97298 19.2367C6.41743 19.3256 6.88409 19.37 7.37298 19.37H13.9063C14.3952 19.37 14.8619 19.3256 15.3063 19.2367L15.9063 20.4367C15.9952 20.57 16.1174 20.67 16.273 20.7367C16.4285 20.8034 16.573 20.7922 16.7063 20.7034C16.8396 20.6145 16.9396 20.5034 17.0063 20.37C17.073 20.2367 17.0619 20.0811 16.973 19.9034L16.4396 18.8367C17.3285 18.3478 18.0619 17.6589 18.6396 16.77C19.2174 15.8811 19.5063 14.9033 19.5063 13.8367V12.57C19.8174 12.4367 20.0841 12.2256 20.3063 11.9367C20.5285 11.6478 20.6397 11.3034 20.6397 10.9033ZM9.83965 2.30335L6.97298 5.23668C6.66187 4.79224 6.52854 4.32557 6.57298 3.83668C6.61743 3.34779 6.81743 2.92557 7.17298 2.57002C7.52854 2.21446 7.96187 2.01446 8.47298 1.97002C8.98409 1.92557 9.43965 2.03668 9.83965 2.30335ZM2.37298 10.37H18.9063C19.0396 10.37 19.1619 10.4256 19.273 10.5367C19.3841 10.6478 19.4396 10.7811 19.4396 10.9367C19.4396 11.0922 19.3841 11.2256 19.273 11.3367C19.1619 11.4478 19.0396 11.5034 18.9063 11.5034H2.37298C2.23965 11.5034 2.11743 11.4478 2.00632 11.3367C1.8952 11.2256 1.83965 11.0922 1.83965 10.9367C1.83965 10.7811 1.8952 10.6478 2.00632 10.5367C2.11743 10.4256 2.23965 10.37 2.37298 10.37ZM18.3063 13.8367C18.3063 14.6367 18.1063 15.37 17.7063 16.0367C17.3063 16.7034 16.773 17.2367 16.1063 17.6367C15.4396 18.0367 14.7063 18.2367 13.9063 18.2367H7.37298C6.57298 18.2367 5.83965 18.0367 5.17298 17.6367C4.50632 17.2367 3.97298 16.7034 3.57298 16.0367C3.17298 15.37 2.97298 14.6367 2.97298 13.8367V12.7034H18.3063V13.8367ZM9.10632 6.70335C9.10632 6.88113 9.16187 7.02557 9.27298 7.13668C9.38409 7.24779 9.51743 7.30335 9.67298 7.30335C9.82854 7.30335 9.96187 7.24779 10.073 7.13668C10.1841 7.02557 10.2396 6.88113 10.2396 6.70335C10.2396 6.52557 10.1841 6.38113 10.073 6.27002C9.96187 6.15891 9.82854 6.10335 9.67298 6.10335C9.51743 6.10335 9.38409 6.15891 9.27298 6.27002C9.16187 6.38113 9.10632 6.52557 9.10632 6.70335ZM10.773 5.03668C10.773 5.21446 10.8285 5.35891 10.9396 5.47002C11.0508 5.58113 11.1841 5.63668 11.3396 5.63668C11.4952 5.63668 11.6285 5.58113 11.7396 5.47002C11.8508 5.35891 11.9063 5.21446 11.9063 5.03668C11.9063 4.85891 11.8508 4.71446 11.7396 4.60335C11.6285 4.49224 11.4952 4.43668 11.3396 4.43668C11.1841 4.43668 11.0508 4.49224 10.9396 4.60335C10.8285 4.71446 10.773 4.85891 10.773 5.03668ZM11.173 7.10335C11.173 7.23668 11.2285 7.37002 11.3396 7.50335C11.4508 7.63668 11.5841 7.70335 11.7396 7.70335C11.8952 7.70335 12.0285 7.63668 12.1396 7.50335C12.2508 7.37002 12.3063 7.22557 12.3063 7.07002C12.3063 6.91446 12.2508 6.78113 12.1396 6.67002C12.0285 6.55891 11.8952 6.50335 11.7396 6.50335C11.5841 6.50335 11.4508 6.55891 11.3396 6.67002C11.2285 6.78113 11.173 6.92557 11.173 7.10335Z" fill="#1A1A1A"/>
</g>
<defs>
<clipPath id="clip0_2_4174">
<rect width="20" height="20" fill="white" transform="matrix(1 0 0 -1 0.639648 20.77)"/>
</clipPath>
</defs>
</svg>
