<svg width="20" height="21" viewBox="0 0 20 21" fill="none" xmlns="http://www.w3.org/2000/svg">
<g clip-path="url(#clip0_2_4170)">
<path d="M17.5333 7.03672H8.73333C8.28889 7.03672 7.86667 7.17005 7.46667 7.43672C7.37778 6.77005 7.1 6.22561 6.63333 5.80338C6.16667 5.38116 5.62222 5.17005 5 5.17005C4.51111 5.17005 4.06667 5.28116 3.66667 5.50338V4.50338C3.66667 4.32561 3.61111 4.18116 3.5 4.07005C3.38889 3.95894 3.24444 3.90339 3.06667 3.90339H0.6C0.422222 3.90339 0.277778 3.95894 0.166667 4.07005C0.0555556 4.18116 0 4.32561 0 4.50338V17.0367C0 17.2145 0.0555556 17.3589 0.166667 17.4701C0.277778 17.5812 0.422222 17.6367 0.6 17.6367H3.06667C3.24444 17.6367 3.38889 17.5812 3.5 17.4701C3.61111 17.3589 3.66667 17.2145 3.66667 17.0367V15.1034H16.3333V17.0367C16.3333 17.2145 16.3889 17.3589 16.5 17.4701C16.6111 17.5812 16.7556 17.6367 16.9333 17.6367H19.4C19.5778 17.6367 19.7222 17.5812 19.8333 17.4701C19.9444 17.3589 20 17.2145 20 17.0367V9.50338C20 8.83672 19.7556 8.25894 19.2667 7.77005C18.7778 7.28116 18.2 7.03672 17.5333 7.03672ZM5 6.30338C5.35556 6.30338 5.65556 6.43672 5.9 6.70338C6.14444 6.97005 6.26667 7.28116 6.26667 7.63672C6.26667 7.99227 6.14444 8.29227 5.9 8.53672C5.65556 8.78116 5.35556 8.90339 5 8.90339C4.64444 8.90339 4.33333 8.78116 4.06667 8.53672C3.8 8.29227 3.66667 7.99227 3.66667 7.63672C3.66667 7.28116 3.8 6.97005 4.06667 6.70338C4.33333 6.43672 4.64444 6.30338 5 6.30338ZM3.66667 9.70338C4.06667 9.97005 4.5 10.1034 4.96667 10.1034C5.43333 10.1034 5.86667 9.97005 6.26667 9.70338V11.4367H3.66667V9.70338ZM18.8 16.4367H17.4667V14.5034C17.4667 14.3701 17.4111 14.2478 17.3 14.1367C17.1889 14.0256 17.0667 13.9701 16.9333 13.9701H3.06667C2.93333 13.9701 2.81111 14.0256 2.7 14.1367C2.58889 14.2478 2.53333 14.3701 2.53333 14.5034V16.4367H1.2V5.10338H2.53333V12.0367C2.53333 12.1701 2.58889 12.3034 2.7 12.4367C2.81111 12.5701 2.93333 12.6367 3.06667 12.6367H18.8V16.4367ZM18.8 11.4367H7.46667V9.50338C7.46667 9.14783 7.58889 8.84783 7.83333 8.60338C8.07778 8.35894 8.37778 8.23672 8.73333 8.23672H17.5333C17.8889 8.23672 18.1889 8.35894 18.4333 8.60338C18.6778 8.84783 18.8 9.14783 18.8 9.50338V11.4367Z" fill="#1A1A1A"/>
</g>
<defs>
<clipPath id="clip0_2_4170">
<rect width="20" height="20" fill="white" transform="matrix(1 0 0 -1 0 20.77)"/>
</clipPath>
</defs>
</svg>
