<svg width="58" height="58" viewBox="0 0 58 58" fill="none" xmlns="http://www.w3.org/2000/svg">
<path d="M16.79 42.26C16.79 41.7267 16.99 41.26 17.39 40.86C17.79 40.46 18.19 40.26 18.59 40.26H39.39C39.79 40.26 40.19 40.46 40.59 40.86C40.99 41.26 41.19 41.7267 41.19 42.26C41.19 42.7933 40.99 43.2267 40.59 43.56C40.19 43.8933 39.79 44.06 39.39 44.06H18.59C18.19 44.06 17.79 43.8933 17.39 43.56C16.99 43.2267 16.79 42.7933 16.79 42.26ZM36.99 3.66001C34.7234 1.79334 32.0567 0.860008 28.99 0.860008C25.9234 0.860008 23.2567 1.79334 20.99 3.66001L5.99004 15.26C4.39004 16.5933 3.12337 18.1267 2.19004 19.86C1.25671 21.5933 0.790039 23.46 0.790039 25.46V44.26C0.790039 46.5267 1.39004 48.66 2.59004 50.66C3.79004 52.66 5.39004 54.26 7.39004 55.46C9.39004 56.66 11.59 57.26 13.99 57.26H43.99C46.39 57.26 48.59 56.66 50.59 55.46C52.59 54.26 54.19 52.66 55.39 50.66C56.59 48.66 57.19 46.5267 57.19 44.26V25.46C57.19 23.46 56.7234 21.5933 55.79 19.86C54.8567 18.1267 53.59 16.5933 51.99 15.26L36.99 3.66001ZM23.19 6.66001C24.9234 5.32668 26.8567 4.66001 28.99 4.66001C31.1234 4.66001 33.0567 5.32668 34.79 6.66001L49.79 18.26C50.8567 19.1933 51.7234 20.2933 52.39 21.56C53.0567 22.8267 53.39 24.1267 53.39 25.46V44.26C53.39 46.7933 52.4567 48.96 50.59 50.76C48.7234 52.56 46.5234 53.46 43.99 53.46H13.99C11.4567 53.46 9.25671 52.56 7.39004 50.76C5.52337 48.96 4.59004 46.7933 4.59004 44.26V25.46C4.59004 24.1267 4.92337 22.8267 5.59004 21.56C6.25671 20.2933 7.12337 19.1933 8.19004 18.26L23.19 6.66001Z" fill="#1A1A1A"/>
</svg>
