<svg width="21" height="21" viewBox="0 0 21 21" fill="none" xmlns="http://www.w3.org/2000/svg">
<g clip-path="url(#clip0_2_4515)">
<path d="M15.3492 20.75C13.527 20.75 11.7492 20.4167 10.0159 19.75C8.19366 19.0389 6.58255 17.9722 5.18255 16.55C3.78255 15.1278 2.70477 13.5056 1.94922 11.6833C1.28255 9.95 0.949219 8.17222 0.949219 6.35C0.949219 5.32778 1.20477 4.39444 1.71589 3.55C2.227 2.70555 2.90477 2.02778 3.74922 1.51667C4.59366 1.00555 5.527 0.749998 6.54922 0.749998C6.81589 0.749998 6.99366 0.883333 7.08255 1.15L9.61589 7.41667C9.66033 7.55 9.64922 7.69444 9.58255 7.85C9.51589 8.00556 9.41589 8.10555 9.28255 8.15L6.54922 9.28333C6.59366 10.3056 6.88255 11.2611 7.41589 12.15C7.94922 13.0389 8.66033 13.75 9.54922 14.2833C10.4381 14.8167 11.3937 15.1056 12.4159 15.15L13.5492 12.4167C13.5937 12.2833 13.6937 12.1833 13.8492 12.1167C14.0048 12.05 14.1492 12.0389 14.2826 12.0833L20.5492 14.6167C20.8159 14.7056 20.9492 14.8833 20.9492 15.15C20.9492 16.1722 20.6937 17.1056 20.1826 17.95C19.6714 18.7944 18.9937 19.4722 18.1492 19.9833C17.3048 20.4944 16.3714 20.75 15.3492 20.75ZM6.14922 1.95C5.03811 2.03889 4.09366 2.50555 3.31589 3.35C2.53811 4.19444 2.14922 5.19444 2.14922 6.35C2.14922 8.12778 2.48255 9.81667 3.14922 11.4167C3.81589 13.0167 4.77144 14.4389 6.01589 15.6833C7.26033 16.9278 8.68255 17.8833 10.2826 18.55C11.8826 19.2167 13.5714 19.55 15.3492 19.55C16.5048 19.55 17.5048 19.1611 18.3492 18.3833C19.1937 17.6056 19.6603 16.6611 19.7492 15.55L14.4159 13.4167L13.3492 16.0167C13.2603 16.2389 13.0826 16.35 12.8159 16.35C11.4826 16.35 10.2381 16.0167 9.08255 15.35C7.927 14.6833 7.01589 13.7722 6.34922 12.6167C5.68255 11.4611 5.34922 10.2167 5.34922 8.88333C5.34922 8.61667 5.46033 8.43889 5.68255 8.35L8.28255 7.28333L6.14922 1.95Z" fill="white"/>
</g>
<defs>
<clipPath id="clip0_2_4515">
<rect width="20" height="20" fill="white" transform="matrix(1 0 0 -1 0.949219 20.75)"/>
</clipPath>
</defs>
</svg>
