<svg width="19" height="19" viewBox="0 0 19 19" fill="none" xmlns="http://www.w3.org/2000/svg">
<path d="M13.8399 18.5C12.1999 18.5 10.5999 18.2 9.03988 17.6C7.39988 16.96 5.94988 16 4.68988 14.72C3.42988 13.44 2.45988 11.98 1.77988 10.34C1.17988 8.78 0.879883 7.18 0.879883 5.54C0.879883 4.62 1.10988 3.78 1.56988 3.02C2.02988 2.26 2.63988 1.65 3.39988 1.19C4.15988 0.73 4.99988 0.5 5.91988 0.5C6.15988 0.5 6.31988 0.620001 6.39988 0.860001L8.67988 6.5C8.71988 6.62 8.70988 6.75 8.64988 6.89C8.58988 7.03 8.49988 7.12 8.37988 7.16L5.91988 8.18C5.95988 9.1 6.21988 9.96 6.69988 10.76C7.17988 11.56 7.81988 12.2 8.61988 12.68C9.41988 13.16 10.2799 13.42 11.1999 13.46L12.2199 11C12.2599 10.88 12.3499 10.79 12.4899 10.73C12.6299 10.67 12.7599 10.66 12.8799 10.7L18.5199 12.98C18.7599 13.06 18.8799 13.22 18.8799 13.46C18.8799 14.38 18.6499 15.22 18.1899 15.98C17.7299 16.74 17.1199 17.35 16.3599 17.81C15.5999 18.27 14.7599 18.5 13.8399 18.5ZM5.55988 1.58C4.55988 1.66 3.70988 2.08 3.00988 2.84C2.30988 3.6 1.95988 4.5 1.95988 5.54C1.95988 7.14 2.25988 8.66 2.85988 10.1C3.45988 11.54 4.31988 12.82 5.43988 13.94C6.55988 15.06 7.83988 15.92 9.27988 16.52C10.7199 17.12 12.2399 17.42 13.8399 17.42C14.8799 17.42 15.7799 17.07 16.5399 16.37C17.2999 15.67 17.7199 14.82 17.7999 13.82L12.9999 11.9L12.0399 14.24C11.9599 14.44 11.7999 14.54 11.5599 14.54C10.3599 14.54 9.23988 14.24 8.19988 13.64C7.15988 13.04 6.33988 12.22 5.73988 11.18C5.13988 10.14 4.83988 9.02 4.83988 7.82C4.83988 7.58 4.93988 7.42 5.13988 7.34L7.47988 6.38L5.55988 1.58Z" fill="#1A1A1A"/>
</svg>
