<svg width="14" height="14" viewBox="0 0 14 14" fill="none" xmlns="http://www.w3.org/2000/svg">
<path d="M6.74888 3.39551C8.59458 3.39551 10.118 4.91895 10.118 6.76465C10.118 8.63965 8.59458 10.1338 6.74888 10.1338C4.87388 10.1338 3.37973 8.63965 3.37973 6.76465C3.37973 4.91895 4.87388 3.39551 6.74888 3.39551ZM6.74888 8.96191C7.95005 8.96191 8.91684 7.99512 8.91684 6.76465C8.91684 5.56348 7.95005 4.59668 6.74888 4.59668C5.51841 4.59668 4.55161 5.56348 4.55161 6.76465C4.55161 7.99512 5.5477 8.96191 6.74888 8.96191ZM11.0262 3.27832C11.0262 3.71777 10.6747 4.06934 10.2352 4.06934C9.79575 4.06934 9.44419 3.71777 9.44419 3.27832C9.44419 2.83887 9.79575 2.4873 10.2352 2.4873C10.6747 2.4873 11.0262 2.83887 11.0262 3.27832ZM13.2528 4.06934C13.3114 5.15332 13.3114 8.40527 13.2528 9.48926C13.1942 10.5439 12.9598 11.4521 12.1981 12.2432C11.4364 13.0049 10.4989 13.2393 9.44419 13.2979C8.3602 13.3564 5.10825 13.3564 4.02427 13.2979C2.96958 13.2393 2.06138 13.0049 1.27036 12.2432C0.508641 11.4521 0.274266 10.5439 0.215672 9.48926C0.157078 8.40527 0.157078 5.15332 0.215672 4.06934C0.274266 3.01465 0.508641 2.07715 1.27036 1.31543C2.06138 0.553711 2.96958 0.319336 4.02427 0.260742C5.10825 0.202148 8.3602 0.202148 9.44419 0.260742C10.4989 0.319336 11.4364 0.553711 12.1981 1.31543C12.9598 2.07715 13.1942 3.01465 13.2528 4.06934ZM11.8465 10.6318C12.1981 9.78223 12.1102 7.73145 12.1102 6.76465C12.1102 5.82715 12.1981 3.77637 11.8465 2.89746C11.6122 2.34082 11.1727 1.87207 10.6161 1.66699C9.73716 1.31543 7.68638 1.40332 6.74888 1.40332C5.78208 1.40332 3.7313 1.31543 2.88169 1.66699C2.29575 1.90137 1.8563 2.34082 1.62192 2.89746C1.27036 3.77637 1.35825 5.82715 1.35825 6.76465C1.35825 7.73145 1.27036 9.78223 1.62192 10.6318C1.8563 11.2178 2.29575 11.6572 2.88169 11.8916C3.7313 12.2432 5.78208 12.1553 6.74888 12.1553C7.68638 12.1553 9.73716 12.2432 10.6161 11.8916C11.1727 11.6572 11.6415 11.2178 11.8465 10.6318Z" fill="#1A1A1A"/>
<a href="https://www.figma.com/design/DB3S8XtYhth9SDNlhms2gK/65--Real-Estate-Website-Templates--Community-?node-id=2-4084">
<rect fill="black" fill-opacity="0" x="-0.282375" y="-1.125" width="13.125" height="17.25"/>
</a>
</svg>
