<svg width="28" height="24" viewBox="0 0 28 24" fill="none" xmlns="http://www.w3.org/2000/svg">
<path fill-rule="evenodd" clip-rule="evenodd" d="M27.4207 2.61102C27.5107 2.01852 27.2582 1.42472 26.7695 1.07602C26.2807 0.728515 25.637 0.684714 25.1057 0.963514C20.8545 3.19601 5.98318 11.0035 1.41568 13.401C0.851982 13.696 0.519483 14.2985 0.568183 14.9322C0.616983 15.566 1.03698 16.111 1.63948 16.3172C3.41818 16.926 5.59198 17.6722 9.00068 18.841L22.7507 5.98972L11.6232 19.7397C15.2582 20.986 20.942 22.9347 22.3682 23.4235C22.8145 23.5772 23.307 23.5235 23.7107 23.2797C24.1145 23.0347 24.3882 22.6235 24.4595 22.156L27.4207 2.61102Z" fill="#1F4B43"/>
</svg>
