<svg width="14" height="14" viewBox="0 0 14 14" fill="none" xmlns="http://www.w3.org/2000/svg">
<path d="M3.29745 13.3896H0.572844V4.62988H3.29745V13.3896ZM1.9205 3.45801C1.07089 3.45801 0.367765 2.72559 0.367765 1.84668C0.367765 0.99707 1.07089 0.293945 1.9205 0.293945C2.79941 0.293945 3.50253 0.99707 3.50253 1.84668C3.50253 2.72559 2.79941 3.45801 1.9205 3.45801ZM13.4635 13.3896H10.7682V9.1416C10.7682 8.11621 10.7389 6.82715 9.33261 6.82715C7.92636 6.82715 7.72128 7.91113 7.72128 9.05371V13.3896H4.99667V4.62988H7.60409V5.83105H7.63339C8.01425 5.15723 8.89316 4.4248 10.2115 4.4248C12.9654 4.4248 13.4928 6.24121 13.4928 8.58496V13.3896H13.4635Z" fill="#1A1A1A"/>
<a href="https://www.figma.com/design/DB3S8XtYhth9SDNlhms2gK/65--Real-Estate-Website-Templates--Community-?node-id=2-4084">
<rect fill="black" fill-opacity="0" x="0.178312" y="-1.125" width="13.125" height="17.25"/>
</a>
</svg>
