<svg width="18" height="21" viewBox="0 0 18 21" fill="none" xmlns="http://www.w3.org/2000/svg">
<path d="M15.133 3.17323C14.2886 2.37322 13.3441 1.751 12.2997 1.30656C11.2552 0.862114 10.1552 0.639891 8.99967 0.639891C7.84412 0.639891 6.73301 0.862114 5.66634 1.30656C4.59967 1.751 3.66634 2.37322 2.86634 3.17323C2.06634 3.97322 1.44412 4.90656 0.999674 5.97323C0.55523 7.03989 0.333008 8.151 0.333008 9.30656C0.333008 10.4621 0.55523 11.5621 0.999674 12.6066C1.44412 13.651 2.06634 14.5954 2.86634 15.4399L7.46634 20.0399C7.86634 20.4399 8.36634 20.6399 8.96634 20.6399C9.56634 20.6399 10.0886 20.4399 10.533 20.0399L15.133 15.4399C15.933 14.5954 16.5552 13.651 16.9997 12.6066C17.4441 11.5621 17.6663 10.4621 17.6663 9.30656C17.6663 8.151 17.4441 7.03989 16.9997 5.97323C16.5552 4.90656 15.933 3.97322 15.133 3.17323ZM14.2663 14.5732L9.66634 19.1732C9.48856 19.351 9.26634 19.4399 8.99967 19.4399C8.73301 19.4399 8.48856 19.351 8.26634 19.1732L3.66634 14.5732C2.95523 13.8621 2.4219 13.051 2.06634 12.1399C1.71079 11.2288 1.53301 10.2732 1.53301 9.27323C1.53301 8.27322 1.71079 7.31767 2.06634 6.40656C2.4219 5.49545 2.95523 4.69545 3.66634 4.00656C4.37745 3.31767 5.18856 2.78434 6.09967 2.40656C7.01079 2.02878 7.96634 1.83989 8.96634 1.83989C9.96634 1.83989 10.9219 2.02878 11.833 2.40656C12.7441 2.78434 13.5552 3.30656 14.2663 3.97322C15.2441 4.951 15.8997 6.08434 16.233 7.37323C16.5663 8.66211 16.5663 9.951 16.233 11.2399C15.8997 12.5288 15.2441 13.6399 14.2663 14.5732ZM8.99967 6.17323C8.15523 6.17323 7.4219 6.48434 6.79967 7.10656C6.17745 7.72878 5.86634 8.46211 5.86634 9.30656C5.86634 10.151 6.17745 10.8732 6.79967 11.4732C7.4219 12.0732 8.15523 12.3732 8.99967 12.3732C9.84412 12.3732 10.5663 12.0732 11.1663 11.4732C11.7663 10.8732 12.0663 10.151 12.0663 9.30656C12.0663 8.46211 11.7663 7.72878 11.1663 7.10656C10.5663 6.48434 9.84412 6.17323 8.99967 6.17323ZM8.99967 11.2399C8.46634 11.2399 8.01079 11.051 7.63301 10.6732C7.25523 10.2954 7.06634 9.83989 7.06634 9.30656C7.06634 8.77322 7.25523 8.31767 7.63301 7.93989C8.01079 7.56211 8.46634 7.37323 8.99967 7.37323C9.53301 7.37323 9.98856 7.56211 10.3663 7.93989C10.7441 8.31767 10.933 8.77322 10.933 9.30656C10.933 9.83989 10.7441 10.2954 10.3663 10.6732C9.98856 11.051 9.53301 11.2399 8.99967 11.2399Z" fill="#1A1A1A"/>
</svg>
