<svg width="200" height="58" viewBox="0 0 200 58" fill="none" xmlns="http://www.w3.org/2000/svg">
<g clip-path="url(#clip0_2_4463)">
<path fill-rule="evenodd" clip-rule="evenodd" d="M24.4471 16.292L24.4353 56.934L28.7746 56.9219L28.7625 42.7355L36.4281 42.7234L36.416 56.9219H40.9578V1.79004L36.4039 4.8096L36.3983 38.4366L28.8102 38.4115L28.8162 8.80436L0 25.4731L0.0387793 48.3217L4.59272 48.3341L4.59861 28.001L24.4471 16.292Z" fill="#1A1A1A"/>
<path fill-rule="evenodd" clip-rule="evenodd" d="M16.567 56.7321V25.8574L12.0856 28.4839L12.1802 52.5393L0.0686547 52.4441L0.00878906 56.708L16.567 56.7321Z" fill="#1A1A1A"/>
<path d="M72.3921 33.872V18.9395H76.0586V33.872C76.0586 35.2885 75.7555 36.495 75.1493 37.4915C74.5431 38.488 73.717 39.25 72.6708 39.7775C71.6246 40.3051 70.4367 40.5689 69.107 40.5689C67.7479 40.5689 66.5404 40.3393 65.4845 39.8801C64.4383 39.421 63.6171 38.7176 63.0206 37.7699C62.4242 36.8223 62.126 35.6207 62.126 34.165H65.8218C65.8218 35.0052 65.9538 35.6842 66.2178 36.2019C66.4916 36.71 66.8729 37.0812 67.3617 37.3157C67.8604 37.5404 68.4421 37.6527 69.107 37.6527C69.7425 37.6527 70.3047 37.511 70.7936 37.2277C71.2922 36.9347 71.6833 36.5097 71.9668 35.9528C72.2504 35.3862 72.3921 34.6926 72.3921 33.872Z" fill="#1A1A1A"/>
<path d="M89.493 36.5388V24.4199H93.0421V40.2756H89.6983L89.493 36.5388ZM89.9916 33.2416L91.1795 33.2123C91.1795 34.2772 91.0622 35.259 90.8276 36.1578C90.5929 37.0468 90.2311 37.8235 89.7423 38.4878C89.2534 39.1423 88.6277 39.6552 87.865 40.0265C87.1024 40.3879 86.1882 40.5687 85.1225 40.5687C84.3501 40.5687 83.6413 40.4563 82.996 40.2316C82.3507 40.0069 81.7934 39.6601 81.3241 39.1912C80.8645 38.7222 80.5077 38.1117 80.2535 37.3594C79.9992 36.6072 79.8721 35.7084 79.8721 34.6631V24.4199H83.4066V34.6924C83.4066 35.2688 83.4751 35.7524 83.6119 36.1431C83.7488 36.5241 83.9346 36.8319 84.1692 37.0663C84.4039 37.3008 84.6777 37.4669 84.9905 37.5646C85.3034 37.6623 85.6358 37.7111 85.9878 37.7111C86.9949 37.7111 87.7868 37.5157 88.3637 37.125C88.9503 36.7244 89.3659 36.1871 89.6103 35.513C89.8645 34.8389 89.9916 34.0818 89.9916 33.2416Z" fill="#1A1A1A"/>
<path d="M105.566 35.9821C105.566 35.6304 105.478 35.3129 105.302 35.0296C105.126 34.7365 104.789 34.4728 104.29 34.2383C103.802 34.0038 103.078 33.7889 102.12 33.5935C101.279 33.4079 100.507 33.1881 99.8025 32.9341C99.1083 32.6703 98.5119 32.3528 98.0132 31.9816C97.5146 31.6103 97.1284 31.1707 96.8546 30.6627C96.5809 30.1547 96.444 29.5686 96.444 28.9042C96.444 28.2595 96.5858 27.6489 96.8693 27.0725C97.1528 26.4961 97.5586 25.9881 98.0866 25.5485C98.6145 25.1088 99.2549 24.762 100.008 24.508C100.771 24.254 101.621 24.127 102.56 24.127C103.89 24.127 105.029 24.3517 105.977 24.8011C106.935 25.2407 107.668 25.8415 108.177 26.6035C108.685 27.3558 108.94 28.2057 108.94 29.1534H105.405C105.405 28.7333 105.297 28.3425 105.082 27.981C104.877 27.6098 104.564 27.3118 104.144 27.0871C103.723 26.8527 103.195 26.7354 102.56 26.7354C101.954 26.7354 101.45 26.8331 101.049 27.0285C100.658 27.2141 100.365 27.4584 100.169 27.7612C99.9834 28.0641 99.8905 28.3962 99.8905 28.7577C99.8905 29.0215 99.9394 29.2608 100.037 29.4757C100.145 29.6809 100.321 29.8714 100.565 30.0473C100.81 30.2133 101.142 30.3696 101.563 30.5162C101.993 30.6627 102.531 30.8044 103.176 30.9411C104.388 31.1951 105.429 31.5224 106.3 31.923C107.18 32.3137 107.854 32.8217 108.324 33.447C108.793 34.0625 109.028 34.844 109.028 35.7916C109.028 36.495 108.876 37.1398 108.573 37.726C108.28 38.3024 107.849 38.8055 107.282 39.2353C106.715 39.6554 106.036 39.9827 105.244 40.2172C104.462 40.4516 103.582 40.5689 102.604 40.5689C101.167 40.5689 99.9491 40.3148 98.9519 39.8068C97.9546 39.2891 97.1968 38.6296 96.6786 37.8285C96.1702 37.0177 95.916 36.1775 95.916 35.308H99.3332C99.3723 35.9626 99.5532 36.4853 99.8758 36.876C100.208 37.257 100.619 37.5355 101.108 37.7113C101.607 37.8774 102.12 37.9604 102.648 37.9604C103.283 37.9604 103.816 37.8774 104.246 37.7113C104.677 37.5355 105.004 37.301 105.229 37.0079C105.454 36.7051 105.566 36.3631 105.566 35.9821Z" fill="#1A1A1A"/>
<path d="M119.396 24.4194V26.9985H110.45V24.4194H119.396ZM113.031 20.5361H116.566V35.8935C116.566 36.382 116.634 36.7581 116.771 37.0219C116.918 37.2759 117.118 37.4468 117.372 37.5348C117.627 37.6227 117.925 37.6667 118.267 37.6667C118.511 37.6667 118.746 37.652 118.971 37.6227C119.196 37.5934 119.377 37.5641 119.514 37.5348L119.528 40.2311C119.235 40.319 118.893 40.3972 118.502 40.4656C118.12 40.534 117.68 40.5682 117.182 40.5682C116.37 40.5682 115.652 40.4265 115.026 40.1432C114.4 39.8501 113.911 39.3763 113.559 38.7217C113.207 38.0672 113.031 37.1977 113.031 36.1133V20.5361Z" fill="#1A1A1A"/>
<path d="M136.585 27.8491V30.7653H125.248V27.8491H136.585ZM126.157 18.9395V40.2758H122.476V18.9395H126.157ZM139.415 18.9395V40.2758H135.749V18.9395H139.415Z" fill="#1A1A1A"/>
<path d="M142.774 32.5238V32.1867C142.774 31.0437 142.94 29.9837 143.272 29.0068C143.605 28.0201 144.084 27.1653 144.71 26.4424C145.345 25.7097 146.118 25.143 147.027 24.7425C147.946 24.3322 148.982 24.127 150.136 24.127C151.299 24.127 152.336 24.3322 153.245 24.7425C154.164 25.143 154.942 25.7097 155.577 26.4424C156.213 27.1653 156.697 28.0201 157.029 29.0068C157.361 29.9837 157.528 31.0437 157.528 32.1867V32.5238C157.528 33.6668 157.361 34.7268 157.029 35.7037C156.697 36.6806 156.213 37.5355 155.577 38.2682C154.942 38.9911 154.169 39.5577 153.26 39.968C152.351 40.3686 151.319 40.5689 150.165 40.5689C149.002 40.5689 147.961 40.3686 147.041 39.968C146.132 39.5577 145.36 38.9911 144.724 38.2682C144.089 37.5355 143.605 36.6806 143.272 35.7037C142.94 34.7268 142.774 33.6668 142.774 32.5238ZM146.308 32.1867V32.5238C146.308 33.2369 146.382 33.911 146.528 34.546C146.675 35.181 146.905 35.7379 147.217 36.2166C147.53 36.6953 147.931 37.0714 148.42 37.345C148.909 37.6185 149.491 37.7553 150.165 37.7553C150.82 37.7553 151.387 37.6185 151.867 37.345C152.355 37.0714 152.756 36.6953 153.069 36.2166C153.382 35.7379 153.612 35.181 153.758 34.546C153.915 33.911 153.993 33.2369 153.993 32.5238V32.1867C153.993 31.4833 153.915 30.819 153.758 30.1938C153.612 29.5588 153.377 28.997 153.055 28.5086C152.742 28.0201 152.341 27.6391 151.852 27.3656C151.373 27.0822 150.801 26.9406 150.136 26.9406C149.471 26.9406 148.894 27.0822 148.405 27.3656C147.926 27.6391 147.53 28.0201 147.217 28.5086C146.905 28.997 146.675 29.5588 146.528 30.1938C146.382 30.819 146.308 31.4833 146.308 32.1867Z" fill="#1A1A1A"/>
<path d="M164.025 27.644V40.2758H160.49V24.4201H163.819L164.025 27.644ZM163.453 31.7618L162.25 31.7471C162.25 30.653 162.387 29.6418 162.661 28.7137C162.934 27.7856 163.335 26.9797 163.863 26.2958C164.391 25.6022 165.046 25.0698 165.828 24.6985C166.62 24.3175 167.535 24.127 168.571 24.127C169.295 24.127 169.954 24.2345 170.551 24.4494C171.157 24.6546 171.68 24.9818 172.12 25.4312C172.57 25.8806 172.912 26.457 173.147 27.1604C173.391 27.8638 173.513 28.7137 173.513 29.7102V40.2758H169.979V30.0179C169.979 29.2462 169.862 28.6405 169.627 28.2008C169.402 27.7612 169.075 27.4486 168.644 27.263C168.224 27.0676 167.72 26.9699 167.134 26.9699C166.469 26.9699 165.902 27.0969 165.433 27.3509C164.973 27.6049 164.597 27.9517 164.303 28.3913C164.01 28.831 163.795 29.339 163.658 29.9154C163.521 30.4918 163.453 31.1072 163.453 31.7618ZM173.293 30.8239L171.636 31.1903C171.636 30.2329 171.768 29.3292 172.032 28.4793C172.306 27.6196 172.702 26.8673 173.22 26.2225C173.748 25.568 174.398 25.0551 175.171 24.6839C175.943 24.3126 176.828 24.127 177.825 24.127C178.637 24.127 179.36 24.2394 179.996 24.4641C180.641 24.679 181.189 25.0209 181.638 25.4898C182.088 25.9588 182.43 26.5694 182.665 27.3216C182.9 28.0641 183.017 28.9629 183.017 30.0179V40.2758H179.468V30.0033C179.468 29.2022 179.35 28.5818 179.116 28.1422C178.891 27.7026 178.568 27.3998 178.148 27.2337C177.727 27.0578 177.224 26.9699 176.637 26.9699C176.09 26.9699 175.606 27.0725 175.185 27.2776C174.775 27.473 174.428 27.7515 174.144 28.1129C173.861 28.4646 173.645 28.87 173.499 29.3292C173.362 29.7884 173.293 30.2866 173.293 30.8239Z" fill="#1A1A1A"/>
<path d="M193.65 40.5689C192.476 40.5689 191.416 40.3784 190.467 39.9973C189.529 39.6066 188.727 39.0644 188.062 38.3707C187.407 37.6771 186.903 36.8614 186.551 35.9235C186.199 34.9857 186.023 33.9745 186.023 32.8901V32.304C186.023 31.0633 186.204 29.9398 186.566 28.9335C186.928 27.9273 187.431 27.0676 188.077 26.3544C188.722 25.6315 189.485 25.0795 190.365 24.6985C191.244 24.3175 192.198 24.127 193.224 24.127C194.359 24.127 195.351 24.3175 196.202 24.6985C197.052 25.0795 197.756 25.6168 198.313 26.3105C198.88 26.9943 199.301 27.8101 199.575 28.7577C199.858 29.7053 200 30.7506 200 31.8937V33.403H187.739V30.8679H196.51V30.5895C196.49 29.9544 196.363 29.3585 196.128 28.8017C195.903 28.2448 195.556 27.7954 195.087 27.4535C194.618 27.1116 193.992 26.9406 193.21 26.9406C192.623 26.9406 192.1 27.0676 191.64 27.3216C191.191 27.5658 190.814 27.9224 190.511 28.3913C190.208 28.8603 189.973 29.4269 189.807 30.0912C189.651 30.7458 189.573 31.4833 189.573 32.304V32.8901C189.573 33.5838 189.665 34.2285 189.851 34.8245C190.047 35.4106 190.33 35.9235 190.702 36.3631C191.073 36.8028 191.523 37.1496 192.051 37.4036C192.579 37.6478 193.18 37.7699 193.855 37.7699C194.706 37.7699 195.463 37.599 196.128 37.257C196.793 36.9151 197.37 36.4315 197.859 35.8063L199.721 37.6087C199.379 38.107 198.934 38.5857 198.387 39.0448C197.839 39.4942 197.169 39.8606 196.378 40.1439C195.595 40.4272 194.686 40.5689 193.65 40.5689Z" fill="#1A1A1A"/>
</g>
<defs>
<clipPath id="clip0_2_4463">
<rect width="200" height="57" fill="white" transform="translate(0 0.889648)"/>
</clipPath>
</defs>
</svg>
