<svg width="150" height="43" viewBox="0 0 150 43" fill="none" xmlns="http://www.w3.org/2000/svg">
<g clip-path="url(#clip0_2_4486)">
<path fill-rule="evenodd" clip-rule="evenodd" d="M18.3353 12.2696L18.3265 42.7511L21.5809 42.7421L21.5719 32.1022L27.3211 32.0931L27.312 42.7421H30.7184V1.39307L27.3029 3.65773L27.2987 28.8781L21.6077 28.8592L21.6122 6.6538L0 19.1554L0.0290845 36.2919L3.44454 36.3012L3.44896 21.0514L18.3353 12.2696Z" fill="white"/>
<path fill-rule="evenodd" clip-rule="evenodd" d="M12.4255 42.5995V19.4434L9.06442 21.4133L9.13537 39.4548L0.0517352 39.3835L0.00683594 42.5813L12.4255 42.5995Z" fill="white"/>
<path d="M54.2943 25.4542V14.2548H57.0442V25.4542C57.0442 26.5165 56.8169 27.4215 56.3622 28.1688C55.9076 28.9162 55.288 29.4877 54.5033 29.8834C53.7187 30.279 52.8278 30.4768 51.8305 30.4768C50.8112 30.4768 49.9055 30.3046 49.1136 29.9602C48.3289 29.6159 47.7131 29.0884 47.2657 28.3777C46.8184 27.6669 46.5947 26.7657 46.5947 25.674H49.3666C49.3666 26.3041 49.4656 26.8133 49.6636 27.2017C49.8689 27.5827 50.1549 27.8611 50.5215 28.0369C50.8955 28.2055 51.3318 28.2897 51.8305 28.2897C52.3071 28.2897 52.7288 28.1835 53.0954 27.971C53.4694 27.7512 53.7627 27.4324 53.9753 27.0148C54.188 26.5898 54.2943 26.0696 54.2943 25.4542Z" fill="white"/>
<path d="M67.119 27.4544V18.3652H69.7808V30.257H67.273L67.119 27.4544ZM67.493 24.9816L68.3839 24.9596C68.3839 25.7582 68.2959 26.4946 68.1199 27.1687C67.9439 27.8354 67.6726 28.418 67.306 28.9162C66.9393 29.4071 66.47 29.7918 65.898 30.0702C65.326 30.3413 64.6404 30.4768 63.8411 30.4768C63.2618 30.4768 62.7302 30.3925 62.2462 30.224C61.7623 30.0555 61.3443 29.7954 60.9923 29.4437C60.6476 29.0921 60.38 28.6341 60.1894 28.0699C59.9986 27.5057 59.9033 26.8316 59.9033 26.0477V18.3652H62.5542V26.0696C62.5542 26.5019 62.6056 26.8646 62.7082 27.1577C62.8109 27.4435 62.9502 27.6742 63.1261 27.8501C63.3022 28.0259 63.5075 28.1505 63.7421 28.2238C63.9768 28.297 64.2261 28.3336 64.4901 28.3336C65.2454 28.3336 65.8393 28.1872 66.272 27.8941C66.712 27.5936 67.0237 27.1907 67.207 26.6851C67.3976 26.1796 67.493 25.6117 67.493 24.9816Z" fill="white"/>
<path d="M79.1749 27.0368C79.1749 26.773 79.1089 26.5349 78.9769 26.3224C78.8449 26.1026 78.5921 25.9048 78.2179 25.7289C77.8519 25.5531 77.3089 25.3918 76.5904 25.2454C75.9596 25.1061 75.3806 24.9412 74.8524 24.7507C74.3317 24.553 73.8844 24.3148 73.5104 24.0364C73.1364 23.758 72.8468 23.4283 72.6414 23.0473C72.4362 22.6662 72.3335 22.2266 72.3335 21.7284C72.3335 21.2448 72.4399 20.7868 72.6525 20.3545C72.8651 19.9222 73.1695 19.5412 73.5655 19.2115C73.9614 18.8818 74.4417 18.6218 75.0064 18.4313C75.5786 18.2407 76.2161 18.1454 76.9203 18.1454C77.9178 18.1454 78.7721 18.3139 79.4831 18.651C80.2016 18.9808 80.7514 19.4314 81.1331 20.0029C81.5141 20.567 81.7054 21.2045 81.7054 21.9152H79.0541C79.0541 21.6002 78.9731 21.307 78.8119 21.036C78.6581 20.7575 78.4233 20.5341 78.1083 20.3656C77.7926 20.1897 77.3966 20.1018 76.9203 20.1018C76.4658 20.1018 76.0879 20.1751 75.7871 20.3215C75.4939 20.4608 75.2741 20.644 75.1271 20.8711C74.988 21.0982 74.9184 21.3474 74.9184 21.6184C74.9184 21.8163 74.9551 21.9958 75.0281 22.157C75.1091 22.3108 75.2411 22.4537 75.4241 22.5856C75.6079 22.7102 75.8569 22.8274 76.1726 22.9373C76.4951 23.0473 76.8986 23.1535 77.3824 23.2561C78.2914 23.4466 79.0721 23.692 79.7254 23.9924C80.3854 24.2855 80.8908 24.6665 81.2433 25.1354C81.5951 25.5971 81.7714 26.1832 81.7714 26.8939C81.7714 27.4215 81.6573 27.905 81.4301 28.3447C81.2103 28.777 80.8871 29.1543 80.4618 29.4767C80.0366 29.7917 79.5274 30.0372 78.9334 30.2131C78.3469 30.3889 77.6868 30.4768 76.9533 30.4768C75.8756 30.4768 74.9623 30.2863 74.2144 29.9053C73.4665 29.517 72.8981 29.0224 72.5095 28.4216C72.1282 27.8134 71.9375 27.1834 71.9375 26.5312H74.5004C74.5297 27.0221 74.6654 27.4142 74.9074 27.7073C75.1564 27.993 75.4646 28.2018 75.8314 28.3336C76.2056 28.4582 76.5904 28.5205 76.9864 28.5205C77.4626 28.5205 77.8624 28.4582 78.1849 28.3336C78.5081 28.2018 78.7533 28.0259 78.9221 27.8062C79.0908 27.579 79.1749 27.3226 79.1749 27.0368Z" fill="white"/>
<path d="M89.5474 18.3652V20.2996H82.8379V18.3652H89.5474ZM84.7736 15.4528H87.4249V26.9708C87.4249 27.3372 87.4759 27.6193 87.5786 27.8171C87.6889 28.0076 87.8389 28.1359 88.0294 28.2018C88.2206 28.2677 88.4441 28.3007 88.7006 28.3007C88.8836 28.3007 89.0599 28.2897 89.2286 28.2677C89.3974 28.2457 89.5331 28.2238 89.6359 28.2018L89.6464 30.224C89.4266 30.29 89.1701 30.3486 88.8769 30.3999C88.5904 30.4512 88.2604 30.4768 87.8869 30.4768C87.2779 30.4768 86.7394 30.3706 86.2699 30.1581C85.8004 29.9383 85.4336 29.5829 85.1696 29.092C84.9056 28.6011 84.7736 27.949 84.7736 27.1357V15.4528Z" fill="white"/>
<path d="M102.439 20.9371V23.1241H93.9364V20.9371H102.439ZM94.6182 14.2548V30.257H91.8574V14.2548H94.6182ZM104.562 14.2548V30.257H101.812V14.2548H104.562Z" fill="white"/>
<path d="M107.08 24.443V24.1903C107.08 23.333 107.205 22.538 107.454 21.8053C107.703 21.0652 108.063 20.4241 108.532 19.882C109.008 19.3324 109.588 18.9075 110.27 18.607C110.959 18.2993 111.736 18.1454 112.602 18.1454C113.474 18.1454 114.252 18.2993 114.933 18.607C115.623 18.9075 116.206 19.3324 116.682 19.882C117.159 20.4241 117.522 21.0652 117.771 21.8053C118.02 22.538 118.146 23.333 118.146 24.1903V24.443C118.146 25.3003 118.02 26.0953 117.771 26.8279C117.522 27.5607 117.159 28.2018 116.682 28.7513C116.206 29.2935 115.626 29.7185 114.945 30.0262C114.263 30.3266 113.489 30.4768 112.623 30.4768C111.751 30.4768 110.97 30.3266 110.28 30.0262C109.599 29.7185 109.02 29.2935 108.543 28.7513C108.066 28.2018 107.703 27.5607 107.454 26.8279C107.205 26.0953 107.08 25.3003 107.08 24.443ZM109.731 24.1903V24.443C109.731 24.9779 109.786 25.4835 109.896 25.9597C110.006 26.436 110.178 26.8536 110.412 27.2126C110.647 27.5717 110.948 27.8538 111.315 28.0589C111.681 28.264 112.118 28.3666 112.623 28.3666C113.115 28.3666 113.54 28.264 113.9 28.0589C114.266 27.8538 114.567 27.5717 114.801 27.2126C115.036 26.8536 115.209 26.436 115.318 25.9597C115.436 25.4835 115.494 24.9779 115.494 24.443V24.1903C115.494 23.6627 115.436 23.1645 115.318 22.6955C115.209 22.2193 115.032 21.798 114.791 21.4316C114.556 21.0652 114.255 20.7795 113.889 20.5744C113.529 20.3619 113.1 20.2556 112.602 20.2556C112.103 20.2556 111.67 20.3619 111.303 20.5744C110.944 20.7795 110.647 21.0652 110.412 21.4316C110.178 21.798 110.006 22.2193 109.896 22.6955C109.786 23.1645 109.731 23.6627 109.731 24.1903Z" fill="white"/>
<path d="M123.018 20.7832V30.257H120.367V18.3652H122.864L123.018 20.7832ZM122.589 23.8715L121.687 23.8606C121.687 23.0399 121.79 22.2816 121.995 21.5855C122.2 20.8895 122.501 20.2849 122.897 19.772C123.293 19.2518 123.784 18.8525 124.371 18.5741C124.965 18.2884 125.651 18.1454 126.428 18.1454C126.971 18.1454 127.465 18.226 127.913 18.3872C128.367 18.5411 128.76 18.7866 129.09 19.1236C129.427 19.4606 129.684 19.8929 129.86 20.4205C130.043 20.948 130.134 21.5855 130.134 22.3328V30.257H127.484V22.5637C127.484 21.9848 127.396 21.5305 127.22 21.2008C127.051 20.8711 126.806 20.6366 126.483 20.4974C126.168 20.3509 125.79 20.2776 125.35 20.2776C124.851 20.2776 124.426 20.3729 124.074 20.5634C123.729 20.7539 123.447 21.014 123.227 21.3437C123.007 21.6734 122.846 22.0544 122.743 22.4867C122.64 22.919 122.589 23.3806 122.589 23.8715ZM129.969 23.1681L128.727 23.4429C128.727 22.7248 128.826 22.0471 129.024 21.4096C129.229 20.7649 129.526 20.2007 129.915 19.7171C130.311 19.2262 130.798 18.8415 131.378 18.5631C131.957 18.2847 132.621 18.1454 133.368 18.1454C133.977 18.1454 134.52 18.2297 134.997 18.3982C135.48 18.5594 135.891 18.8159 136.228 19.1676C136.566 19.5193 136.822 19.9772 136.998 20.5414C137.175 21.0982 137.262 21.7723 137.262 22.5637V30.257H134.601V22.5526C134.601 21.9518 134.512 21.4866 134.337 21.1569C134.168 20.8271 133.926 20.6 133.611 20.4754C133.295 20.3436 132.918 20.2776 132.477 20.2776C132.067 20.2776 131.704 20.3546 131.388 20.5085C131.081 20.655 130.821 20.8638 130.608 21.1348C130.395 21.3986 130.233 21.7027 130.124 22.0471C130.021 22.3915 129.969 22.7651 129.969 23.1681Z" fill="white"/>
<path d="M145.238 30.4768C144.357 30.4768 143.562 30.334 142.851 30.0482C142.147 29.7551 141.546 29.3485 141.047 28.8283C140.556 28.3081 140.178 27.6962 139.914 26.9929C139.65 26.2895 139.518 25.5311 139.518 24.7178V24.2782C139.518 23.3476 139.653 22.505 139.925 21.7504C140.196 20.9956 140.574 20.3509 141.058 19.816C141.542 19.2738 142.114 18.8599 142.774 18.5741C143.433 18.2884 144.149 18.1454 144.918 18.1454C145.77 18.1454 146.514 18.2884 147.152 18.5741C147.789 18.8599 148.317 19.2628 148.735 19.783C149.16 20.296 149.476 20.9077 149.682 21.6184C149.894 22.3292 150 23.1132 150 23.9704V25.1025H140.805V23.2011H147.383V22.9923C147.368 22.516 147.273 22.0691 147.096 21.6515C146.928 21.2338 146.667 20.8967 146.316 20.6403C145.964 20.3839 145.494 20.2556 144.908 20.2556C144.468 20.2556 144.075 20.3509 143.73 20.5414C143.394 20.7246 143.111 20.992 142.884 21.3437C142.656 21.6954 142.48 22.1203 142.356 22.6186C142.239 23.1095 142.18 23.6627 142.18 24.2782V24.7178C142.18 25.238 142.249 25.7216 142.389 26.1685C142.536 26.6082 142.748 26.9929 143.027 27.3226C143.305 27.6523 143.643 27.9124 144.039 28.1029C144.435 28.286 144.885 28.3777 145.392 28.3777C146.03 28.3777 146.598 28.2494 147.096 27.993C147.595 27.7365 148.028 27.3739 148.395 26.9049L149.791 28.2568C149.535 28.6304 149.201 28.9895 148.791 29.3339C148.38 29.6709 147.877 29.9456 147.284 30.1581C146.697 30.3706 146.015 30.4768 145.238 30.4768Z" fill="white"/>
</g>
<defs>
<clipPath id="clip0_2_4486">
<rect width="150" height="42" fill="white" transform="translate(0 0.75)"/>
</clipPath>
</defs>
</svg>
