<svg width="19" height="21" viewBox="0 0 19 21" fill="none" xmlns="http://www.w3.org/2000/svg">
<path d="M3.73509 20.2303C4.2515 20.2295 4.75851 20.0921 5.20469 19.8321L17.2299 12.8757C17.6767 12.6177 18.0477 12.2467 18.3057 11.7999C18.5636 11.3531 18.6995 10.8462 18.6995 10.3303C18.6995 9.81442 18.5636 9.30755 18.3057 8.86074C18.0477 8.41393 17.6767 8.04289 17.2299 7.78492L5.20469 0.837318C4.75784 0.582148 4.25187 0.448668 3.73729 0.450208C3.22272 0.451738 2.71755 0.588248 2.27223 0.846088C1.82692 1.10393 1.45703 1.47408 1.19951 1.91958C0.942001 2.36508 0.805861 2.87035 0.804691 3.38492V17.2757C0.803511 18.0555 1.1111 18.804 1.66022 19.3577C2.20934 19.9113 2.95532 20.2251 3.73509 20.2303ZM2.33369 3.38492C2.33186 3.13859 2.39572 2.89623 2.51868 2.68278C2.64165 2.46933 2.81928 2.29251 3.03329 2.17052C3.24604 2.04666 3.48781 1.9814 3.73399 1.9814C3.98017 1.9814 4.22195 2.04666 4.43469 2.17052L16.4665 9.11812C16.6784 9.24116 16.8542 9.41772 16.9765 9.63002C17.0987 9.84242 17.1631 10.0831 17.1631 10.3281C17.1631 10.5731 17.0987 10.8138 16.9765 11.0262C16.8542 11.2385 16.6784 11.4151 16.4665 11.5381L4.43469 18.4901C4.22162 18.6129 3.98001 18.6774 3.73411 18.6772C3.48821 18.677 3.24668 18.6122 3.03379 18.4891C2.8209 18.3661 2.64413 18.1892 2.52124 17.9762C2.39835 17.7632 2.33367 17.5216 2.33369 17.2757V3.38492Z" fill="white"/>
</svg>
