<svg width="14" height="17" viewBox="0 0 14 17" fill="none" xmlns="http://www.w3.org/2000/svg">
<path d="M6.69477 7.98333C7.76143 7.98333 8.6681 7.60111 9.41477 6.83667C10.1614 6.07222 10.5348 5.15667 10.5348 4.09C10.5348 3.02333 10.1614 2.11667 9.41477 1.37C8.6681 0.623333 7.76143 0.25 6.69477 0.25C5.6281 0.25 4.72143 0.623333 3.97477 1.37C3.2281 2.11667 2.85477 3.02333 2.85477 4.09C2.85477 5.15667 3.2281 6.07222 3.97477 6.83667C4.72143 7.60111 5.6281 7.98333 6.69477 7.98333ZM4.61477 2.06333C5.18365 1.49444 5.8681 1.21 6.6681 1.21C7.4681 1.21 8.16143 1.49444 8.7481 2.06333C9.33477 2.63222 9.6281 3.31667 9.6281 4.11667C9.6281 4.91667 9.34365 5.60111 8.77477 6.17C8.20588 6.73889 7.51254 7.02333 6.69477 7.02333C5.87699 7.02333 5.18365 6.73889 4.61477 6.17C4.04588 5.60111 3.76143 4.91667 3.76143 4.11667C3.76143 3.31667 4.04588 2.63222 4.61477 2.06333ZM13.4148 12.57C13.4148 12.25 13.3792 11.9033 13.3081 11.53C13.237 11.1567 13.1481 10.8189 13.0414 10.5167C12.9348 10.2144 12.7925 9.90333 12.6148 9.58333C12.437 9.26333 12.2325 8.98778 12.0014 8.75667C11.7703 8.52556 11.477 8.33889 11.1214 8.19667C10.7659 8.05444 10.3748 7.98333 9.9481 7.98333C9.80588 7.98333 9.59254 8.07222 9.3081 8.25L8.6681 8.67667C8.45477 8.81889 8.17032 8.94333 7.81477 9.05C7.45921 9.15667 7.11254 9.21 6.77477 9.21C6.43699 9.21 6.09032 9.15667 5.73477 9.05C5.37921 8.94333 5.11254 8.81889 4.93477 8.67667L4.24143 8.25C3.99254 8.07222 3.79699 7.98333 3.65477 7.98333C3.2281 7.98333 2.83699 8.05444 2.48143 8.19667C2.12588 8.33889 1.82365 8.52556 1.57477 8.75667C1.32588 8.98778 1.11254 9.26333 0.934766 9.58333C0.756988 9.90333 0.614766 10.2233 0.508099 10.5433C0.401432 10.8633 0.321432 11.2011 0.268099 11.5567C0.214766 11.9122 0.17921 12.2411 0.161432 12.5433C0.143655 12.8456 0.134766 13.1567 0.134766 13.4767C0.134766 14.33 0.392543 15.0056 0.908099 15.5033C1.42365 16.0011 2.1081 16.25 2.96143 16.25H10.6414C11.4592 16.25 12.1348 16.0011 12.6681 15.5033C13.2014 15.0056 13.4681 14.33 13.4681 13.4767C13.4681 13.1567 13.4503 12.8544 13.4148 12.57ZM12.0281 14.81C11.6725 15.13 11.2103 15.29 10.6414 15.29H2.96143C2.35699 15.29 1.88588 15.13 1.5481 14.81C1.21032 14.49 1.04143 14.0456 1.04143 13.4767L1.09477 12.6233C1.09477 12.3389 1.13032 12.0367 1.20143 11.7167C1.27254 11.3967 1.34365 11.1033 1.41477 10.8367C1.48588 10.57 1.59254 10.3122 1.73477 10.0633C1.87699 9.81444 2.03699 9.61 2.21477 9.45C2.39254 9.29 2.59699 9.16556 2.8281 9.07667C3.05921 8.98778 3.29921 8.94333 3.5481 8.94333L4.40143 9.47667C4.68588 9.65444 5.04143 9.80556 5.4681 9.93C5.89477 10.0544 6.33032 10.1167 6.77477 10.1167C7.21921 10.1167 7.66365 10.0544 8.1081 9.93C8.55254 9.80556 8.89921 9.65444 9.1481 9.47667L10.0014 8.94333C10.2859 8.94333 10.5437 8.98778 10.7748 9.07667C11.0059 9.16556 11.2014 9.29 11.3614 9.45C11.5214 9.61 11.6725 9.81444 11.8148 10.0633C11.957 10.3122 12.0725 10.57 12.1614 10.8367C12.2503 11.1033 12.3214 11.3967 12.3748 11.7167C12.4281 12.0367 12.4725 12.3389 12.5081 12.6233V13.4767C12.5081 14.0456 12.3481 14.49 12.0281 14.81Z" fill="white"/>
</svg>
