<svg width="39" height="39" viewBox="0 0 39 39" fill="none" xmlns="http://www.w3.org/2000/svg">
<path d="M9.67883 38.02C6.64234 38.02 4.27007 36.9724 2.56204 34.8771C0.854015 32.6867 0 29.4486 0 25.1629C0 20.6867 0.99635 16.401 2.98905 12.3057C5.07664 8.2105 8.01825 4.16288 11.8139 0.162884C11.9088 0.0676408 12.0511 0.0200195 12.2409 0.0200195C12.5255 0.0200195 12.7153 0.162878 12.8102 0.448594C13 0.639068 13.0474 0.877163 12.9526 1.16288C10.6752 4.2105 9.10949 7.16288 8.25548 10.02C7.49635 12.7819 7.11679 15.8771 7.11679 19.3057C7.11679 21.8771 7.44891 23.8771 8.11314 25.3057C8.77737 26.7343 9.67883 28.02 10.8175 29.1629L5.40876 30.1629C5.31387 28.5438 5.74088 27.3057 6.68978 26.4486C7.73358 25.5914 9.06205 25.1629 10.6752 25.1629C12.6679 25.1629 14.1861 25.7343 15.2299 26.8771C16.3686 28.02 16.938 29.5914 16.938 31.5914C16.938 33.6867 16.2737 35.3057 14.9453 36.4486C13.7117 37.4962 11.9562 38.02 9.67883 38.02ZM31.5985 38.02C28.562 38.02 26.1898 36.9724 24.4818 34.8771C22.8686 32.6867 22.062 29.4486 22.062 25.1629C22.062 20.5914 23.0584 16.2581 25.0511 12.1629C27.0438 8.06764 29.9854 4.06764 33.8759 0.162884C33.9708 0.0676408 34.1131 0.0200195 34.3029 0.0200195C34.5876 0.0200195 34.7774 0.162878 34.8723 0.448594C35.062 0.639068 35.1095 0.877163 35.0146 1.16288C32.7372 4.2105 31.1715 7.16288 30.3175 10.02C29.5584 12.7819 29.1788 15.8771 29.1788 19.3057C29.1788 21.8771 29.4635 23.9248 30.0328 25.4486C30.6971 26.8771 31.5985 28.1152 32.7372 29.1629L27.4708 30.1629C27.3759 28.5438 27.8029 27.3057 28.7518 26.4486C29.7007 25.5914 31.0292 25.1629 32.7372 25.1629C34.7299 25.1629 36.2482 25.7343 37.292 26.8771C38.4307 28.02 39 29.5914 39 31.5914C39 33.6867 38.3358 35.3057 37.0073 36.4486C35.7737 37.4962 33.9708 38.02 31.5985 38.02Z" fill="#1A1A1A"/>
</svg>
