<svg width="21" height="21" viewBox="0 0 21 21" fill="none" xmlns="http://www.w3.org/2000/svg">
<g clip-path="url(#clip0_2_4177)">
<path d="M16.3862 19.57H13.9862C13.8529 19.57 13.7195 19.6367 13.5862 19.77C13.4529 19.9034 13.3862 20.0478 13.3862 20.2034C13.3862 20.3589 13.4529 20.4922 13.5862 20.6034C13.7195 20.7145 13.8529 20.77 13.9862 20.77H16.3862C16.564 20.77 16.7084 20.7145 16.8195 20.6034C16.9306 20.4922 16.9862 20.3589 16.9862 20.2034C16.9862 20.0478 16.9306 19.9034 16.8195 19.77C16.7084 19.6367 16.564 19.57 16.3862 19.57ZM11.6529 19.57H9.31953C9.14175 19.57 8.99731 19.6367 8.8862 19.77C8.77509 19.9034 8.71953 20.0478 8.71953 20.2034C8.71953 20.3589 8.77509 20.4922 8.8862 20.6034C8.99731 20.7145 9.14175 20.77 9.31953 20.77H11.6529C11.8306 20.77 11.9751 20.7145 12.0862 20.6034C12.1973 20.4922 12.2529 20.3589 12.2529 20.2034C12.2529 20.0478 12.1973 19.9034 12.0862 19.77C11.9751 19.6367 11.8306 19.57 11.6529 19.57ZM19.9195 8.97002C19.7862 8.97002 19.6529 9.02557 19.5195 9.13669C19.3862 9.2478 19.3195 9.39224 19.3195 9.57002V11.9034C19.3195 12.0811 19.3862 12.2256 19.5195 12.3367C19.6529 12.4478 19.7973 12.5034 19.9529 12.5034C20.1084 12.5034 20.2418 12.4478 20.3529 12.3367C20.464 12.2256 20.5195 12.0811 20.5195 11.9034V9.57002C20.5195 9.39224 20.464 9.2478 20.3529 9.13669C20.2418 9.02557 20.0973 8.97002 19.9195 8.97002ZM19.9195 13.6367C19.7862 13.6367 19.6529 13.7034 19.5195 13.8367C19.3862 13.97 19.3195 14.1034 19.3195 14.2367V16.57C19.3195 16.7478 19.3862 16.8922 19.5195 17.0034C19.6529 17.1145 19.7973 17.17 19.9529 17.17C20.1084 17.17 20.2418 17.1145 20.3529 17.0034C20.464 16.8922 20.5195 16.7478 20.5195 16.57V14.2367C20.5195 14.1034 20.464 13.97 20.3529 13.8367C20.2418 13.7034 20.0973 13.6367 19.9195 13.6367ZM6.9862 19.57H6.3862V19.0367C6.3862 18.8589 6.33064 18.7145 6.21953 18.6034C6.10842 18.4922 5.96398 18.4367 5.7862 18.4367C5.60842 18.4367 5.46398 18.4922 5.35286 18.6034C5.24175 18.7145 5.1862 18.8589 5.1862 19.0367V20.17C5.1862 20.3478 5.24175 20.4922 5.35286 20.6034C5.46398 20.7145 5.60842 20.77 5.7862 20.77H6.9862C7.11953 20.77 7.24175 20.7145 7.35286 20.6034C7.46398 20.4922 7.51953 20.3589 7.51953 20.2034C7.51953 20.0478 7.46398 19.9034 7.35286 19.77C7.24175 19.6367 7.11953 19.57 6.9862 19.57ZM19.9195 5.43669H18.7862C18.6084 5.43669 18.464 5.49224 18.3529 5.60335C18.2418 5.71446 18.1862 5.85891 18.1862 6.03668C18.1862 6.21446 18.2418 6.35891 18.3529 6.47002C18.464 6.58113 18.6084 6.63669 18.7862 6.63669H19.3195V7.23669C19.3195 7.37002 19.3862 7.49224 19.5195 7.60335C19.6529 7.71446 19.7973 7.77002 19.9529 7.77002C20.1084 7.77002 20.2418 7.71446 20.3529 7.60335C20.464 7.49224 20.5195 7.37002 20.5195 7.23669V6.03668C20.5195 5.85891 20.464 5.71446 20.3529 5.60335C20.2418 5.49224 20.0973 5.43669 19.9195 5.43669ZM19.9195 18.4367C19.7862 18.4367 19.6529 18.4922 19.5195 18.6034C19.3862 18.7145 19.3195 18.8589 19.3195 19.0367V19.57H18.7862C18.6084 19.57 18.464 19.6367 18.3529 19.77C18.2418 19.9034 18.1862 20.0478 18.1862 20.2034C18.1862 20.3589 18.2418 20.4922 18.3529 20.6034C18.464 20.7145 18.6084 20.77 18.7862 20.77H19.9195C20.0973 20.77 20.2418 20.7145 20.3529 20.6034C20.464 20.4922 20.5195 20.3478 20.5195 20.17V19.0367C20.5195 18.8589 20.464 18.7145 20.3529 18.6034C20.2418 18.4922 20.0973 18.4367 19.9195 18.4367ZM16.3862 5.43669H15.7862V1.37002C15.7862 1.19224 15.7195 1.0478 15.5862 0.936686C15.4529 0.825575 15.3195 0.770018 15.1862 0.770018H1.11953C0.941753 0.770018 0.797309 0.825575 0.686198 0.936686C0.575087 1.0478 0.519531 1.19224 0.519531 1.37002V15.4367C0.519531 15.57 0.575087 15.7034 0.686198 15.8367C0.797309 15.97 0.941753 16.0367 1.11953 16.0367H5.1862V16.57C5.1862 16.7478 5.24175 16.8922 5.35286 17.0034C5.46398 17.1145 5.60842 17.17 5.7862 17.17C5.96398 17.17 6.10842 17.1145 6.21953 17.0034C6.33064 16.8922 6.3862 16.7478 6.3862 16.57V6.63669H16.3862C16.564 6.63669 16.7084 6.58113 16.8195 6.47002C16.9306 6.35891 16.9862 6.21446 16.9862 6.03668C16.9862 5.85891 16.9306 5.71446 16.8195 5.60335C16.7084 5.49224 16.564 5.43669 16.3862 5.43669ZM14.5862 5.43669H5.7862C5.60842 5.43669 5.46398 5.49224 5.35286 5.60335C5.24175 5.71446 5.1862 5.85891 5.1862 6.03668V14.8367H1.71953V1.97002H14.5862V5.43669Z" fill="#1A1A1A"/>
</g>
<defs>
<clipPath id="clip0_2_4177">
<rect width="20" height="20" fill="white" transform="matrix(1 0 0 -1 0.519531 20.77)"/>
</clipPath>
</defs>
</svg>
