<svg width="52" height="54" viewBox="0 0 52 54" fill="none" xmlns="http://www.w3.org/2000/svg">
<path d="M26.3209 53.46C25.5209 53.46 24.7875 53.26 24.1209 52.86L15.3209 47.66C11.5875 45.5266 8.55419 42.5933 6.22086 38.86C3.88753 35.1266 2.52086 31.1266 2.12086 26.86L0.920859 11.86C0.787526 10.7933 0.987526 9.82663 1.52086 8.95996C2.05419 8.09329 2.78753 7.52663 3.72086 7.25996C5.18753 6.85996 6.52086 6.25996 7.72086 5.45996C9.18753 4.52663 10.5209 3.32663 11.7209 1.85996C12.5209 0.793293 13.6542 0.25996 15.1209 0.25996H37.5209C38.9875 0.25996 40.1209 0.793293 40.9209 1.85996C42.1209 3.32663 43.4542 4.52663 44.9209 5.45996C46.1209 6.25996 47.4542 6.85996 48.9209 7.25996C49.8542 7.52663 50.5875 8.09329 51.1209 8.95996C51.6542 9.82663 51.9209 10.7266 51.9209 11.66L50.5209 26.66C50.2542 31.06 48.9542 35.0933 46.6209 38.76C44.2875 42.4266 41.2542 45.3933 37.5209 47.66L28.7209 52.86C27.9209 53.26 27.1209 53.46 26.3209 53.46ZM15.1209 3.85996C14.8542 3.85996 14.6542 3.92663 14.5209 4.05996C13.1875 5.79329 11.6542 7.32663 9.92086 8.65996C8.45419 9.59329 6.85419 10.26 5.12086 10.66C4.72086 10.7933 4.52086 11.06 4.52086 11.46L5.92086 26.46C6.18753 30.1933 7.32086 33.66 9.32086 36.86C11.3209 40.06 13.9209 42.5933 17.1209 44.46L25.9209 49.66C26.1875 49.7933 26.4542 49.7933 26.7209 49.66L35.5209 44.46C38.7209 42.5933 41.3209 40.0933 43.3209 36.96C45.3209 33.8266 46.4542 30.3266 46.7209 26.46L48.1209 11.46C48.1209 11.1933 47.9209 10.9933 47.5209 10.86C45.7875 10.46 44.1875 9.72663 42.7209 8.65996C40.9875 7.45996 39.4542 5.99329 38.1209 4.25996C37.9875 4.12663 37.7875 4.05996 37.5209 4.05996L15.1209 3.85996ZM24.5209 32.66C23.9875 32.66 23.5209 32.46 23.1209 32.06L18.1209 27.06C17.8542 26.7933 17.7542 26.4266 17.8209 25.96C17.8875 25.4933 18.0875 25.0933 18.4209 24.76C18.7542 24.4266 19.1209 24.2266 19.5209 24.16C19.9209 24.0933 20.3209 24.1933 20.7209 24.46L24.5209 28.26L33.1209 19.46C33.5209 19.3266 33.9209 19.26 34.3209 19.26C34.7209 19.26 35.0875 19.4266 35.4209 19.76C35.7542 20.0933 35.9542 20.46 36.0209 20.86C36.0875 21.26 35.9875 21.66 35.7209 22.06L25.7209 32.06C25.4542 32.46 25.0542 32.66 24.5209 32.66Z" fill="#1A1A1A"/>
</svg>
