<svg width="16" height="13" viewBox="0 0 16 13" fill="none" xmlns="http://www.w3.org/2000/svg">
<path d="M13.5185 3.71777C13.5185 3.86426 13.5185 3.98145 13.5185 4.12793C13.5185 8.2002 10.4423 12.8584 4.78805 12.8584C3.03023 12.8584 1.41891 12.3604 0.07125 11.4814C0.305625 11.5107 0.54 11.54 0.803672 11.54C2.23922 11.54 3.55758 11.042 4.61227 10.2217C3.26461 10.1924 2.12203 9.31348 1.74117 8.08301C1.94625 8.1123 2.12203 8.1416 2.32711 8.1416C2.59078 8.1416 2.88375 8.08301 3.11812 8.02441C1.71187 7.73145 0.657187 6.50098 0.657187 5.00684V4.97754C1.06734 5.21191 1.56539 5.3291 2.06344 5.3584C1.21383 4.80176 0.686484 3.86426 0.686484 2.80957C0.686484 2.22363 0.832969 1.69629 1.09664 1.25684C2.62008 3.10254 4.90523 4.33301 7.45406 4.47949C7.39547 4.24512 7.36617 4.01074 7.36617 3.77637C7.36617 2.07715 8.74312 0.700195 10.4423 0.700195C11.3212 0.700195 12.1123 1.05176 12.6982 1.66699C13.372 1.52051 14.0459 1.25684 14.6318 0.905273C14.3974 1.6377 13.9287 2.22363 13.2841 2.60449C13.8994 2.5459 14.5146 2.37012 15.042 2.13574C14.6318 2.75098 14.1045 3.27832 13.5185 3.71777Z" fill="#1A1A1A"/>
<a href="https://www.figma.com/design/DB3S8XtYhth9SDNlhms2gK/65--Real-Estate-Website-Templates--Community-?node-id=2-4084">
<rect fill="black" fill-opacity="0" x="-0.749063" y="-1.125" width="15" height="17.25"/>
</a>
</svg>
