<svg width="60" height="60" viewBox="0 0 60 60" fill="none" xmlns="http://www.w3.org/2000/svg">
<path d="M58.6605 43.4602L56.8608 41.8602V34.8602C56.8608 33.6602 56.4276 32.6268 55.5611 31.7602C54.6945 30.8935 53.6947 30.4602 52.5616 30.4602C51.4284 30.4602 50.4619 30.7935 49.662 31.4602C48.8622 32.1268 48.3289 32.9935 48.0623 34.0602L46.4626 32.6602C45.6627 31.8602 44.6629 31.4602 43.4631 31.4602C42.2633 31.4602 41.1968 31.8602 40.2636 32.6602L28.0656 43.4602C27.799 43.7268 27.6657 44.0602 27.6657 44.4602C27.6657 44.8602 27.7657 45.1935 27.9657 45.4602C28.1656 45.7268 28.4656 45.8602 28.8655 45.8602C29.2654 45.8602 29.5987 45.7935 29.8653 45.6602V55.4602C29.8653 56.6602 30.2653 57.6602 31.0651 58.4602C31.865 59.2602 32.7982 59.6602 33.8647 59.6602H52.8615C54.0613 59.6602 55.0278 59.2602 55.761 58.4602C56.4942 57.6602 56.8608 56.6602 56.8608 55.4602V45.6602C57.2608 45.7935 57.6274 45.8602 57.9607 45.8602C58.2939 45.8602 58.5939 45.6935 58.8605 45.3602C59.1271 45.0268 59.2271 44.6935 59.1605 44.3602C59.0938 44.0268 58.9272 43.7268 58.6605 43.4602ZM45.8627 56.8602H41.2634V53.4602C41.2634 52.9268 41.4634 52.4602 41.8633 52.0602C42.2633 51.6602 42.7299 51.4602 43.2631 51.4602H43.863C44.3963 51.4602 44.8628 51.6602 45.2628 52.0602C45.6627 52.4602 45.8627 52.9268 45.8627 53.4602V56.8602ZM54.0613 55.4602C54.0613 55.8602 53.9613 56.1935 53.7614 56.4602C53.5614 56.7268 53.2614 56.8602 52.8615 56.8602H48.6622V53.4602C48.6622 52.1268 48.1956 50.9935 47.2624 50.0602C46.3293 49.1268 45.1961 48.6602 43.863 48.6602H43.2631C41.93 48.6602 40.7969 49.1268 39.8637 50.0602C38.9305 50.9935 38.4639 52.1268 38.4639 53.4602V56.8602H33.8647C33.5981 56.8602 33.3314 56.7268 33.0648 56.4602C32.7982 56.1935 32.6649 55.8602 32.6649 55.4602V43.0602L42.0633 34.8602C42.4632 34.4602 42.8965 34.2602 43.3631 34.2602C43.8297 34.2602 44.2629 34.4602 44.6629 34.8602L54.0613 43.0602V55.4602ZM54.0613 34.8602V39.4602L50.8618 36.4602V34.8602C50.8618 34.4602 50.9952 34.0935 51.2618 33.7602C51.5284 33.4268 51.895 33.2268 52.3616 33.1602C52.8282 33.0935 53.2281 33.2268 53.5614 33.5602C53.8947 33.8935 54.0613 34.3268 54.0613 34.8602ZM43.4631 37.6602C42.2633 37.6602 41.2634 38.0935 40.4636 38.9602C39.6637 39.8268 39.2638 40.8268 39.2638 41.9602C39.2638 43.0935 39.6637 44.0602 40.4636 44.8602C41.2634 45.6602 42.23 46.0602 43.3631 46.0602C44.4962 46.0602 45.4961 45.6602 46.3626 44.8602C47.2291 44.0602 47.6624 43.0935 47.6624 41.9602C47.6624 40.8268 47.2291 39.8268 46.3626 38.9602C45.4961 38.0935 44.5296 37.6602 43.4631 37.6602ZM44.6629 41.8602C44.6629 42.2602 44.5629 42.5935 44.3629 42.8602C44.163 43.1268 43.863 43.2602 43.4631 43.2602C43.0631 43.2602 42.7299 43.1268 42.4632 42.8602C42.1966 42.5935 42.0633 42.2602 42.0633 41.8602C42.0633 41.4602 42.1966 41.1268 42.4632 40.8602C42.7299 40.5935 43.0631 40.4602 43.4631 40.4602C43.863 40.4602 44.163 40.5935 44.3629 40.8602C44.5629 41.1268 44.6629 41.4602 44.6629 41.8602ZM25.2661 56.6602H7.46908C6.26928 56.6602 5.20279 56.2268 4.26961 55.3602C3.33643 54.4935 2.86985 53.4602 2.86985 52.2602V7.86016C2.86985 6.66016 3.33643 5.59349 4.26961 4.66016C5.20279 3.72682 6.26928 3.26015 7.46908 3.26015H48.0623C49.3954 3.26015 50.4952 3.72682 51.3618 4.66016C52.2283 5.59349 52.6615 6.66016 52.6615 7.86016V25.6602C52.6615 26.0602 52.7949 26.3935 53.0615 26.6602C53.3281 26.9268 53.6614 27.0602 54.0613 27.0602C54.4612 27.0602 54.7945 26.9268 55.0611 26.6602C55.3278 26.3935 55.4611 26.0602 55.4611 25.6602V7.86016C55.4611 5.86016 54.7279 4.12682 53.2614 2.66016C51.795 1.19349 50.062 0.460155 48.0623 0.460155H7.46908C5.46941 0.460155 3.73637 1.19349 2.26995 2.66016C0.803524 4.12682 0.0703125 5.86016 0.0703125 7.86016V52.2602C0.0703125 54.2602 0.803524 55.9935 2.26995 57.4602C3.73637 58.9268 5.46941 59.6602 7.46908 59.6602H25.2661C25.666 59.6602 26.0327 59.4935 26.3659 59.1602C26.6992 58.8268 26.8658 58.4935 26.8658 58.1602C26.8658 57.8268 26.6992 57.4935 26.3659 57.1602C26.0327 56.8268 25.666 56.6602 25.2661 56.6602ZM42.6632 14.6602C42.6632 14.2602 42.5299 13.9268 42.2633 13.6602C41.9967 13.3935 41.6634 13.2602 41.2634 13.2602H13.4681C13.0681 13.2602 12.7349 13.3935 12.4682 13.6602C12.2016 13.9268 12.0683 14.2602 12.0683 14.6602C12.0683 15.0602 12.2016 15.3935 12.4682 15.6602C12.7349 15.9268 13.0681 16.0602 13.4681 16.0602H41.2634C41.6634 16.0602 41.9967 15.9268 42.2633 15.6602C42.5299 15.3935 42.6632 15.0602 42.6632 14.6602ZM35.8643 25.4602C35.8643 25.1935 35.731 24.8935 35.4644 24.5602C35.1978 24.2268 34.8645 24.0602 34.4646 24.0602H13.4681C13.0681 24.0602 12.7349 24.2268 12.4682 24.5602C12.2016 24.8935 12.0683 25.2268 12.0683 25.5602C12.0683 25.8935 12.2016 26.2268 12.4682 26.5602C12.7349 26.8935 13.0681 27.0602 13.4681 27.0602H34.4646C34.8645 27.0602 35.1978 26.8935 35.4644 26.5602C35.731 26.2268 35.8643 25.8602 35.8643 25.4602ZM13.4681 35.0602C13.0681 35.0602 12.7349 35.1935 12.4682 35.4602C12.2016 35.7268 12.0683 36.0602 12.0683 36.4602C12.0683 36.8602 12.2016 37.1935 12.4682 37.4602C12.7349 37.7268 13.0681 37.8602 13.4681 37.8602H22.0666C22.3333 37.8602 22.6332 37.7268 22.9665 37.4602C23.2998 37.1935 23.4664 36.8602 23.4664 36.4602C23.4664 36.0602 23.2998 35.7268 22.9665 35.4602C22.6332 35.1935 22.3333 35.0602 22.0666 35.0602H13.4681Z" fill="#1A1A1A"/>
</svg>
